<svg role="img" viewBox="0 0 24 24" xmlns="http://www.w3.org/2000/svg"><title>Tether</title><path fill="#26A17B" d="M18.7538 10.5176c0 .6251-2.2379 1.1483-5.2381 1.2812l.0028.0007c-.0848.0064-.5233.0325-1.5012.0325-.7778 0-1.33-.0233-1.5237-.0325-3.0059-.1322-5.2495-.6555-5.2495-1.2819s2.2436-1.149 5.2495-1.2834v2.0442c.1965.0142.759.0474 1.5372.0474.9334 0 1.4008-.0389 1.4849-.0466V9.2356c2.9994.1337 5.2381.657 5.2381 1.282zm5.19.5466L12.1248 22.389a.1803.1803 0 0 1-.2496 0L.0562 11.0635a.1781.1781 0 0 1-.0382-.2079l4.3762-9.1921a.1767.1767 0 0 1 .1626-.1026h14.8878a.1768.1768 0 0 1 .1612.1032l4.3762 9.1922a.1781.1781 0 0 1-.0382.2079zM18.7538 10.5176c0 .8068-2.558 1.4801-5.9601 1.6376v5.862h-3.025v-5.8618c-3.4018-.157-5.9601-.8301-5.9601-1.6376 0-.8075 2.5583-1.4801 5.9601-1.6376V7.195H6.3076V4.4055h11.6848V7.195h-4.186v1.8285c3.3952.1561 4.9474.8299 4.9474 1.4941z"/></svg>